<?xml version="1.0" standalone="no"?><!DOCTYPE svg PUBLIC "-//W3C//DTD SVG 1.1//EN" "http://www.w3.org/Graphics/SVG/1.1/DTD/svg11.dtd"><svg t="1691028179271" class="icon" viewBox="0 0 1024 1024" version="1.1" xmlns="http://www.w3.org/2000/svg" p-id="30313" xmlns:xlink="http://www.w3.org/1999/xlink" width="20" height="20"><path d="M733.652618 639.977604a51.191042 51.191042 0 0 0-51.191042 88.662884l121.834679 70.336491A409.681906 409.681906 0 0 1 115.879128 407.723848L16.824463 381.667608c-57.48754 217.817882 34.758717 455.60027 239.215737 573.646812 244.846752 141.389657 557.931162 57.48754 699.269628-187.359212l-221.65721-127.977604zM767.950616 68.68558C523.103864-72.704077 210.019453 11.19804 68.680988 256.044792l221.65721 127.977604a51.191042 51.191042 0 0 0 51.191041-88.662884L219.69456 225.023021a409.681906 409.681906 0 0 1 688.417127 391.253131l99.054666 26.05624c57.48754-217.817882-34.758717-455.60027-239.215737-573.646812z" fill="#8a8a8a" p-id="30314"></path></svg>