<?xml version="1.0" standalone="no"?><!DOCTYPE svg PUBLIC "-//W3C//DTD SVG 1.1//EN" "http://www.w3.org/Graphics/SVG/1.1/DTD/svg11.dtd"><svg t="1691028263131" class="icon" viewBox="0 0 1024 1024" version="1.1" xmlns="http://www.w3.org/2000/svg" p-id="31557" xmlns:xlink="http://www.w3.org/1999/xlink" width="20" height="20"><path d="M511.692462 1023.999317a457.045029 457.045029 0 1 1 456.225829-456.225829c0 6.348796 0 12.765858-0.4096 19.114654a270.062753 270.062753 0 0 0-101.444199-37.546642 354.98643 354.98643 0 1 0-354.440297 373.213618 366.660022 366.660022 0 0 0 57.617029-4.573863 271.701152 271.701152 0 0 0 58.572761 91.272472A463.530358 463.530358 0 0 1 511.692462 1023.999317z m70.10982-331.093112l-120.831919-74.478884V314.026457H537.224178v268.833954l85.947676 51.541299a273.612618 273.612618 0 0 0-40.959972 58.436228z m370.892553-419.225321l-233.130512-197.973201L785.373346 0l233.267045 197.973201-65.945556 75.98075z m-882.004746 0L4.744533 197.973201 237.943311 5.05173l66.013823 75.980749L70.690089 273.680884z" fill="#4A7EEF" p-id="31558"></path><path d="M823.943987 867.463955l-112.435125 112.366858-48.264501-48.264501L775.611219 819.199454l-112.366858-112.435125 48.264501-48.264501L823.943987 770.866686l112.366859-112.366858 48.264501 48.264501L872.208488 819.199454l112.366859 112.366858-48.264501 48.264501z" fill="#4A7EEF" p-id="31559"></path></svg>