<?xml version="1.0" standalone="no"?><!DOCTYPE svg PUBLIC "-//W3C//DTD SVG 1.1//EN" "http://www.w3.org/Graphics/SVG/1.1/DTD/svg11.dtd"><svg class="icon" width="20px" height="20.00px" viewBox="0 0 1024 1024" version="1.1" xmlns="http://www.w3.org/2000/svg"><path fill="#1296db" d="M683.11552 340.89472a25.5744 25.5744 0 0 0-36.17792 0L512 475.82208 377.0624 340.89472c-9.99424-9.99424-26.18368-9.99424-36.17792 0s-9.99424 26.18368 0 36.17792L475.82208 512l-134.9376 134.92736a25.5744 25.5744 0 0 0 18.08896 43.6736 25.50784 25.50784 0 0 0 18.08896-7.49568L512 548.17792l134.9376 134.92736c4.99712 4.99712 11.54048 7.49568 18.08896 7.49568s13.09184-2.49856 18.08896-7.49568a25.5744 25.5744 0 0 0 0-36.17792L548.17792 512l134.9376-134.92736a25.5744 25.5744 0 0 0 0-36.17792zM512 0.32256C229.87776 0.32256 0.32256 229.87776 0.32256 512S229.87776 1023.67744 512 1023.67744c60.51328 0 119.67488-10.4448 175.83616-31.03232a25.62048 25.62048 0 0 0 15.24224-32.82944c-4.84864-13.29152-19.6864-20.03968-32.82944-15.24224-50.57024 18.53952-103.7824 27.93472-158.24896 27.93472-253.93664 0-460.50816-206.5664-460.50816-460.50816S258.06336 51.49184 512 51.49184 972.50816 258.06336 972.50816 512c0 68.4544-14.63808 134.26688-43.52 195.67616a25.5232 25.5232 0 0 0 12.24192 34.02752c12.69248 5.99552 27.9808 0.50176 34.02752-12.24192 32.128-68.25472 48.41984-141.40928 48.41984-217.46176C1023.67744 229.87776 794.12224 0.32256 512 0.32256z" /></svg>