<?xml version="1.0" standalone="no"?><!DOCTYPE svg PUBLIC "-//W3C//DTD SVG 1.1//EN" "http://www.w3.org/Graphics/SVG/1.1/DTD/svg11.dtd"><svg t="1691027505597" class="icon" viewBox="0 0 1024 1024" version="1.1" xmlns="http://www.w3.org/2000/svg" p-id="28988" width="25" height="25" xmlns:xlink="http://www.w3.org/1999/xlink"><path d="M511.36 930.64c-211.88 0-384.34-172.38-384.43-384.3-0.03-211.99 172.38-384.5 384.34-384.54h0.12c102.62 0 199.11 39.96 271.72 112.52 72.63 72.59 112.65 169.11 112.68 271.79 0.03 211.98-172.38 384.47-384.34 384.53h-0.09z m0.03-709.83h-0.12c-179.41 0.04-325.36 146.06-325.33 325.49 0.09 179.39 146.07 325.33 325.42 325.33h0.09c179.41-0.06 325.36-146.07 325.33-325.51-0.03-86.91-33.91-168.63-95.39-230.07-61.45-61.41-143.13-95.24-230-95.24z" fill="#1296db" p-id="28989"></path><path d="M657.15 733.23c-7.55 0-15.1-2.88-20.86-8.64L485.81 574.14a29.513 29.513 0 0 1-8.64-20.86V340.15c0-16.29 13.2-29.5 29.5-29.5 16.31 0 29.5 13.21 29.5 29.5v200.91l141.84 141.81c11.52 11.51 11.52 30.19 0 41.72a29.442 29.442 0 0 1-20.86 8.64zM124.2 246.66c-9.22 0-18.27-4.29-24.03-12.35-9.48-13.27-6.4-31.69 6.86-41.16l135.5-96.8c13.25-9.48 31.66-6.4 41.14 6.84 9.48 13.27 6.4 31.69-6.86 41.16l-135.5 96.8a29.26 29.26 0 0 1-17.11 5.51zM898.47 246.66c-5.94 0-11.93-1.79-17.11-5.5l-135.5-96.8c-13.25-9.46-16.34-27.89-6.86-41.16 9.48-13.24 27.92-16.31 41.14-6.84l135.5 96.8c13.25 9.46 16.34 27.89 6.86 41.16-5.77 8.04-14.81 12.34-24.03 12.34z" fill="#1296db" p-id="28990"></path></svg>